pinch_force_states
version=1
nRows=7
nColumns=45
inDegrees=yes

# SIMM Motion File Header:
name pinch_force_states
datacolumns 45
datarows 7
otherdata 1
range 0.15009746 0.15069746
endheader
time	/jointset/radiocarpal/deviation/value	/jointset/radiocarpal/deviation/speed	/jointset/radiocarpal/flexion/value	/jointset/radiocarpal/flexion/speed	/jointset/wrist_hand/wrist_hand_r1/value	/jointset/wrist_hand/wrist_hand_r1/speed	/jointset/wrist_hand/wrist_hand_r3/value	/jointset/wrist_hand/wrist_hand_r3/speed	/jointset/CMC1a/cmc_flexion/value	/jointset/CMC1a/cmc_flexion/speed	/jointset/CMC1b/cmc_abduction/value	/jointset/CMC1b/cmc_abduction/speed	/jointset/MCP/mp_flexion/value	/jointset/MCP/mp_flexion/speed	/jointset/IP/ip_flexion/value	/jointset/IP/ip_flexion/speed	/forceset/ECRL/activation	/forceset/ECRL/fiber_length	/forceset/ECRB/activation	/forceset/ECRB/fiber_length	/forceset/ECU/activation	/forceset/ECU/fiber_length	/forceset/FCR/activation	/forceset/FCR/fiber_length	/forceset/FCU/activation	/forceset/FCU/fiber_length	/forceset/EPL/activation	/forceset/EPL/fiber_length	/forceset/EPB/activation	/forceset/EPB/fiber_length	/forceset/FPL/activation	/forceset/FPL/fiber_length	/forceset/APL/activation	/forceset/APL/fiber_length	/forceset/APB/activation	/forceset/APB/fiber_length	/forceset/FPB/activation	/forceset/FPB/fiber_length	/forceset/OPP/activation	/forceset/OPP/fiber_length	/forceset/ADPt/activation	/forceset/ADPt/fiber_length	/forceset/ADPo/activation	/forceset/ADPo/fiber_length
      0.15009746	      0.02316867	      0.08611497	     -0.05680336	     -0.07059243	      1.77638569	      6.50903011	     -1.62729642	     -2.02232412	    -13.08503542	      3.53128536	    -12.49826067	     12.52202128	     15.55733335	    -15.39368813	     47.31632576	     18.82690774	      0.01238483	      0.06428933	      0.36622056	      0.05509185	      0.99862122	      0.05902659	     -0.00223618	      0.05134625	      0.60768366	      0.03030913	      0.47396701	      0.05260392	      0.07694563	      0.06428584	      1.00000000	      0.05425827	      0.01293340	      0.07137439	      0.08647987	      0.05285810	      0.12944159	      0.05070157	      0.51645636	      0.04473315	      0.99666356	      0.03908416	      0.87323913	      0.03227121
      0.15019746	      0.02317728	      0.08605026	     -0.05681044	     -0.07096399	      1.77703635	      6.50406977	     -1.62749919	     -2.03296863	    -13.08468184	      3.54043509	    -12.49700669	     12.55749645	     15.55579407	    -15.39198035	     47.31820892	     18.83625790	      0.01238483	      0.06428949	      0.36622056	      0.05509193	      0.99862122	      0.05902625	     -0.00224433	      0.05134637	      0.60768366	      0.03030901	      0.47396701	      0.05260408	      0.07694563	      0.06428580	      1.00000000	      0.05425844	      0.01293340	      0.07137453	      0.08647987	      0.05285798	      0.12944159	      0.05070171	      0.51645636	      0.04473311	      0.99666356	      0.03908442	      0.87323913	      0.03227147
      0.15029746	      0.02318588	      0.08598790	     -0.05681755	     -0.07132501	      1.77768651	      6.49928658	     -1.62770301	     -2.04331102	    -13.08432734	      3.54932898	    -12.49574921	     12.59198588	     15.55425495	    -15.39038480	     47.32009300	     18.84538798	      0.01238483	      0.06428965	      0.36622056	      0.05509201	      0.99862122	      0.05902591	     -0.00225248	      0.05134648	      0.60768366	      0.03030889	      0.47396701	      0.05260423	      0.07694563	      0.06428576	      1.00000000	      0.05425861	      0.01293340	      0.07137467	      0.08647987	      0.05285786	      0.12944159	      0.05070185	      0.51645636	      0.04473307	      0.99666356	      0.03908467	      0.87323913	      0.03227172
      0.15039746	      0.02319447	      0.08592786	     -0.05682470	     -0.07167547	      1.77833621	      6.49467930	     -1.62790784	     -2.05335101	    -13.08397198	      3.55796698	    -12.49448833	     12.62548780	     15.55271599	    -15.38889976	     47.32197799	     18.85429577	      0.01238483	      0.06428981	      0.36622056	      0.05509209	      0.99862122	      0.05902557	     -0.00226063	      0.05134660	      0.60768366	      0.03030877	      0.47396701	      0.05260439	      0.07694563	      0.06428572	      1.00000000	      0.05425878	      0.01293340	      0.07137481	      0.08647987	      0.05285774	      0.12944159	      0.05070199	      0.51645636	      0.04473303	      0.99666356	      0.03908493	      0.87323913	      0.03227198
      0.15049746	      0.02320306	      0.08587013	     -0.05683189	     -0.07201537	      1.77898545	      6.49024666	     -1.62811367	     -2.06308838	    -13.08361576	      3.56634906	    -12.49322414	     12.65800065	     15.55117717	    -15.38752350	     47.32386385	     18.86297914	      0.01238483	      0.06428996	      0.36622056	      0.05509216	      0.99862122	      0.05902523	     -0.00226878	      0.05134671	      0.60768366	      0.03030865	      0.47396701	      0.05260455	      0.07694563	      0.06428568	      1.00000000	      0.05425895	      0.01293340	      0.07137495	      0.08647987	      0.05285762	      0.12944159	      0.05070213	      0.51645636	      0.04473299	      0.99666356	      0.03908518	      0.87323913	      0.03227223
      0.15059746	      0.02321165	      0.08581469	     -0.05683911	     -0.07234470	      1.77963426	      6.48598737	     -1.62832045	     -2.07252297	    -13.08325872	      3.57447525	    -12.49195676	     12.68952305	     15.54963848	    -15.38625432	     47.32575058	     18.87143603	      0.01238483	      0.06429012	      0.36622056	      0.05509224	      0.99862122	      0.05902489	     -0.00227694	      0.05134683	      0.60768366	      0.03030853	      0.47396701	      0.05260471	      0.07694563	      0.06428564	      1.00000000	      0.05425912	      0.01293340	      0.07137509	      0.08647987	      0.05285750	      0.12944159	      0.05070227	      0.51645636	      0.04473296	      0.99666356	      0.03908544	      0.87323913	      0.03227249
      0.15069746	      0.02322023	      0.08576152	     -0.05684636	     -0.07266346	      1.78028266	      6.48190012	     -1.62852816	     -2.08165469	    -13.08290087	      3.58234564	    -12.49068627	     12.72005381	     15.54809991	    -15.38509047	     47.32763813	     18.87966441	      0.01238483	      0.06429027	      0.36622056	      0.05509232	      0.99862122	      0.05902455	     -0.00228509	      0.05134695	      0.60768366	      0.03030841	      0.47396701	      0.05260487	      0.07694563	      0.06428560	      1.00000000	      0.05425929	      0.01293340	      0.07137523	      0.08647987	      0.05285738	      0.12944159	      0.05070241	      0.51645636	      0.04473292	      0.99666356	      0.03908569	      0.87323913	      0.03227274
